<svg width="201" height="60" viewBox="0 0 201 60" fill="none" xmlns="http://www.w3.org/2000/svg">
    <path d="M29.8 23.125L33 25.525C33 25.525 33 31.925 33 33.525C33 35.125 31.4 39.125 27.4 39.125C23.4 39.125 21 35.125 21 35.125C21 35.125 22.6 36.725 25.8 36.725C29 36.725 29.8 34.325 29.8 33.525C29.8 32.725 29.8 23.125 29.8 23.125Z" fill="white"/>
    <path d="M21 23.125L24.2 25.5625C24.2 25.5625 24.2 32.875 24.2 34.5C24.2 35.3125 25 36.125 25 36.125C25 36.125 21 35.3125 21 32.875C21 29.625 21 23.125 21 23.125Z" fill="white"/>
    <path d="M36 36.6544L38.4 39.125H40V29.2426L36.8 25.125V36.6544H36Z" fill="white"/>
    <path d="M36 23.125L41.8333 25.525L46 30.325V35.125L36 23.125Z" fill="white"/>
    <path d="M46 23.125L49 25.525V39.125L46 36.725V23.125Z" fill="white"/>
    <path d="M51 36.725L53.4 39.125H55V25.525L51.8 23.125V36.725H51Z" fill="white"/>
    <path d="M42 42.125C39.053 45.211 34.9495 47.125 30.4115 47.125C25.9634 47.125 21.9333 45.2864 19 42.3074" stroke="white" stroke-width="0.287138" stroke-miterlimit="10" stroke-linejoin="round"/>
    <path d="M19 19.8547C21.9511 16.9251 25.956 15.125 30.3667 15.125C34.9119 15.125 39.026 17.0363 42 20.125" stroke="white" stroke-width="0.287138" stroke-miterlimit="10" stroke-linejoin="round"/>
    <path d="M19 5.21897C19 5.21897 23.4296 3.125 29.9936 3.125C36.5577 3.125 41 5.21071 41 5.21071L39.0192 6.12049C39.0192 6.12049 34.9167 4.64622 29.9936 4.64622C25.0706 4.64622 20.9681 6.125 20.9681 6.125L19 5.21897Z" fill="white"/>
    <path d="M50 50.4031C50 50.4031 46.6442 53.7943 41.1029 56.0165C35.2225 58.3744 30 58.1167 30 58.1167L31.4517 56.5377C31.4517 56.5377 35.8865 56.4061 40.4559 54.5947C45.0255 52.7834 47.9018 50.125 47.9018 50.125L50 50.4031Z" fill="white"/>
    <path d="M10.8084 50.875C10.8084 50.875 7.2714 47.5213 4.95062 41.5092C2.77137 35.8638 3.00749 30.875 3.00749 30.875L4.61211 32.2854C4.61211 32.2854 4.63316 36.2615 6.40006 40.8834C8.16693 45.5052 11 48.6748 11 48.6748L10.8084 50.875Z" fill="white"/>
    <path d="M30 6.87873L27.6013 9.41075C27.6013 9.41075 24.6811 9.74873 21.4752 11.0296C19.0477 11.9996 17.2069 13.2778 14.7307 15.6068C12.4095 18.077 11.0034 20.2193 10.0851 22.5232C8.79162 25.769 8.54402 28.4754 8.54402 28.4754L6.01298 30.875C6.01298 30.875 5.37516 21.6159 13.042 13.9008C20.3121 6.48107 30 6.87873 30 6.87873Z" fill="white"/>
    <path d="M24.0114 51.875C24.0114 51.875 26.4453 52.7368 30.5538 52.7368C34.5582 52.7368 36.9921 51.8758 36.9921 51.8758L40 53.1841C40 53.1841 36.1808 54.875 30.5538 54.875C24.8227 54.875 21 53.1883 21 53.1883L24.0114 51.875Z" fill="white"/>
    <path d="M30.1648 51.875C24.658 51.875 19.6668 49.6311 16.0277 45.9933C12.3072 42.2745 10 37.0988 10 31.3749C10 20.0531 19.0281 10.875 30.1648 10.875C32.9436 10.875 35.5913 11.4465 38 12.4801" stroke="white" stroke-width="0.287138" stroke-miterlimit="10" stroke-linejoin="round"/>
    <path d="M30 1.875C38.1891 1.875 45.6078 4.92942 51 9.875" stroke="white" stroke-width="0.574275" stroke-miterlimit="10" stroke-linejoin="round"/>
    <path d="M19 58C8.42083 53.5072 1 43.0099 1 30.7767C1 22.6773 4.25313 15.3387 9.52227 10" stroke="white" stroke-width="0.574275" stroke-miterlimit="10" stroke-linejoin="round"/>
    <path d="M57 42C53.9597 49.2105 48.1933 54.9786 41 58" stroke="white" stroke-width="0.574275" stroke-miterlimit="10" stroke-linejoin="round"/>
    <path d="M62.3761 37.5V23.3463H71.0255V26.0198H65.0495V29.0864H69.8461V31.7599H65.0495V37.5H62.3761ZM72.9967 37.5V23.3463H75.6702V37.5H72.9967ZM78.8135 37.5V23.3463H81.4869V35.0034H87.5809V37.5H78.8135ZM89.2521 37.5V23.3463H98.4914V25.8428H91.9256V28.8702H97.3119V31.3667H91.9256V35.0034H98.4914V37.5H89.2521ZM104.783 37.5V23.3463H107.181L111.86 32.7428L116.538 23.3463H118.936V37.5H116.44V29.0471L112.331 37.5H111.388L107.279 29.0471V37.5H104.783ZM120.713 37.5L125.037 23.3463H129.028L133.353 37.5H130.6L126.747 25.0172H127.259L123.465 37.5H120.713ZM123.307 34.5513V32.0548H130.777V34.5513H123.307ZM135.114 37.5V23.3463H137.827L143.98 32.7821V23.3463H146.693V37.5H143.98L137.827 28.0642V37.5H135.114ZM148.452 37.5L152.777 23.3463H156.768L161.093 37.5H158.34L154.487 25.0172H154.999L151.205 37.5H148.452ZM151.047 34.5513V32.0548H158.517V34.5513H151.047ZM168.368 37.7949C167.476 37.7949 166.628 37.6376 165.822 37.3231C165.016 37.002 164.302 36.5302 163.679 35.9077C163.063 35.2852 162.575 34.5153 162.215 33.5979C161.861 32.6805 161.684 31.6223 161.684 30.4231C161.684 28.8571 161.982 27.5269 162.578 26.4326C163.181 25.3317 163.987 24.493 164.996 23.9164C166.012 23.3397 167.136 23.0514 168.368 23.0514C170.189 23.0514 171.621 23.4741 172.663 24.3194C173.705 25.1646 174.403 26.3605 174.756 27.9069L172.024 28.3001C171.768 27.4745 171.349 26.8159 170.766 26.3245C170.189 25.8265 169.449 25.5742 168.545 25.5676C167.647 25.5545 166.9 25.7478 166.304 26.1475C165.707 26.5473 165.258 27.1141 164.957 27.848C164.662 28.5819 164.515 29.4402 164.515 30.4231C164.515 31.406 164.662 32.2579 164.957 32.9787C165.258 33.6995 165.707 34.2597 166.304 34.6594C166.9 35.0591 167.647 35.2655 168.545 35.2787C169.154 35.2918 169.704 35.1869 170.196 34.9641C170.694 34.7413 171.113 34.3908 171.454 33.9124C171.795 33.4341 172.037 32.8214 172.181 32.0744H169.94V30.0103H175.032C175.045 30.0955 175.055 30.2462 175.061 30.4625C175.068 30.6787 175.071 30.8032 175.071 30.836C175.071 32.1924 174.796 33.3948 174.245 34.4432C173.695 35.4916 172.918 36.314 171.916 36.9103C170.913 37.5 169.731 37.7949 168.368 37.7949ZM177.041 37.5V23.3463H186.28V25.8428H179.714V28.8702H185.101V31.3667H179.714V35.0034H186.28V37.5H177.041ZM188.636 37.5V23.3463H194.612C194.75 23.3463 194.933 23.3528 195.162 23.3659C195.398 23.3725 195.608 23.3922 195.792 23.4249C196.637 23.556 197.328 23.8345 197.865 24.2604C198.409 24.6863 198.809 25.2236 199.065 25.8723C199.32 26.5145 199.448 27.232 199.448 28.0249C199.448 29.2109 199.153 30.2266 198.563 31.0719C197.974 31.9106 197.05 32.4283 195.792 32.6248L194.612 32.7035H191.31V37.5H188.636ZM196.617 37.5L193.826 31.7402L196.578 31.2095L199.644 37.5H196.617ZM191.31 30.2069H194.494C194.632 30.2069 194.782 30.2004 194.946 30.1872C195.11 30.1741 195.261 30.1479 195.398 30.1086C195.759 30.0103 196.037 29.8465 196.234 29.6172C196.43 29.3813 196.565 29.1224 196.637 28.8407C196.715 28.5524 196.755 28.2804 196.755 28.0249C196.755 27.7693 196.715 27.5007 196.637 27.2189C196.565 26.9306 196.43 26.6718 196.234 26.4424C196.037 26.2065 195.759 26.0394 195.398 25.9411C195.261 25.9018 195.11 25.8756 194.946 25.8625C194.782 25.8494 194.632 25.8428 194.494 25.8428H191.31V30.2069Z" fill="white"/>
</svg>
